
        <svg xmlns="http://www.w3.org/2000/svg" xmlns:xlink="http://www.w3.org/1999/xlink" version="1.1" width="3171.4285714285716" 
        height="2035.0957927208553" viewBox="0 0 3171.4285714285716 2035.0957927208553">
			<rect fill="#000000" width="3171.4285714285716" height="2035.0957927208553"/>
			<g transform="scale(8.571428571428571) translate(10, 10)">
				<defs id="SvgjsDefs1015"></defs><g id="SvgjsG1016" featureKey="symbolGroupContainer" transform="matrix(1,0,0,1,85,0)" fill="#0162fe"><rect xmlns="http://www.w3.org/2000/svg" width="180" height="132" rx="10" ry="10"></rect></g><g id="SvgjsG1017" featureKey="symbolFeature-0" transform="matrix(0.7035175879396985,0,0,0.7035175879396985,77.56281407035175,-0.40201005025125625)" fill="#202020"><g xmlns="http://www.w3.org/2000/svg"><path fill-rule="evenodd" clip-rule="evenodd" d="M130.6,61.8c1.8,1.1,4.4,3.8,4.4,9.5c0,4.7-5.4,7.2-10.3,8.5   c-9.9,1.1-16.7,3.5-16.7,6.3c0,3.9,13.2,7,29.5,7s29.5-3.1,29.5-7c0-2.8-6.9-5.2-16.8-6.3c-5.3-1.3-11.3-3.8-11.2-8.5   c0.1-5.8,2.9-8.4,4.6-9.5C149.7,59.1,154,53,154,46c0-9.4-7.6-17-17-17c-9.4,0-17,7.6-17,17C120,53.1,124.4,59.3,130.6,61.8z    M124.6,40.7c1.2-3.2,3.8-5.7,6.9-7c0.8-0.3,1.6,0.1,2,0.8c0.3,0.8-0.1,1.6-0.8,2c-2.4,1-4.3,2.9-5.3,5.3c-0.3,0.8-1.2,1.2-1.9,0.8   C124.7,42.4,124.3,41.5,124.6,40.7z"></path><path fill-rule="evenodd" clip-rule="evenodd" d="M132.3,74.2c0.2-0.4,0.4-0.7,0.5-1.1C100.4,73.7,75,80.1,75,88   c0,8.3,28.2,15,63,15c34.8,0,63-6.7,63-15c0-8-26.4-14.6-59.7-15c0.2,0.4,0.3,0.7,0.6,1.1c24.2,0.5,43.2,5.3,43.2,11.2   c0,6.2-21.1,11.2-47.1,11.2c-26,0-47.1-5-47.1-11.2C90.9,79.6,109,74.8,132.3,74.2z"></path><path fill-rule="evenodd" clip-rule="evenodd" d="M238,90.5c0-12.8-43.1-23.2-96.9-23.5c-0.1,0.4-0.1,0.8-0.1,1.2   c43.3,0.3,78,8.7,78,19c0,10.5-36,19.1-80.5,19.1S58,97.8,58,87.3c0-10.1,33.2-18.4,75.1-19c0-0.4-0.1-0.8-0.1-1.3   C80.6,67.7,39,78,39,90.5c0,12.6,42.3,23,95.3,23.5c0.5,0.8,0.7,1.8,0.7,2.8c0,5.7-2.6,8.3-4.4,9.5c-6.2,2.5-10.6,8.6-10.6,15.8   c0,9.4,7.6,17,17,17s17-7.6,17-17c0-7-4.3-13.1-10.4-15.7c-1.7-1.1-4.5-3.7-4.6-9.5c0-1.1,0.3-2,0.8-2.9   C194.2,113.8,238,103.4,238,90.5z M133.5,152.8c-0.3,0.8-1.2,1.1-2,0.8c-3.2-1.3-5.7-3.8-6.9-7c-0.3-0.8,0.1-1.6,0.8-1.9   c0.8-0.3,1.6,0.1,1.9,0.8c0.9,2.4,2.9,4.4,5.3,5.3C133.5,151.2,133.8,152.1,133.5,152.8z"></path></g></g><g id="SvgjsG1018" featureKey="nameFeature-0" transform="matrix(1.266463959698601,0,0,1.266463959698601,-2.9381963019551636,138.11955374559741)" fill="#0162fe"><path d="M2.32 40 l0 -28.6 l11.88 0 l6.2 13.28 l0 -13.28 l9.44 0 l0 28.6 l-10.12 0 l-7.92 -15.6 l0 15.6 l-9.48 0 z M34.52 40 l0 -28.6 l12.56 0 c8.52 0 12.48 3.44 12.48 9.64 l0 0.16 c0 3.76 -1.64 6 -4.2 7.4 l5.88 11.4 l-11.08 0 l-4.44 -9.08 l-0.6 0 l0 9.08 l-10.6 0 z M45.120000000000005 24.240000000000002 l1.2 0 c2.08 0 3 -0.84 3 -2.52 l0 -0.16 c0 -1.56 -0.92 -2.24 -2.92 -2.24 l-1.28 0 l0 4.92 z M78.04 40.56 c-10.88 0 -15.72 -5.92 -15.72 -14.68 l0 -0.32 c0 -8.96 6.56 -14.6 15.2 -14.6 c8.2 0 13.44 3.6 14.16 11.84 l-11.04 0 c-0.12 -2.16 -1.24 -3.44 -3.08 -3.44 c-2.52 0 -4 2 -4 6.16 l0 0.32 c0 4.04 1.44 6.2 4.2 6.2 c1.96 0 3.4 -1.04 3.64 -3.44 l10.64 0 c-0.32 7.8 -6.08 11.96 -14 11.96 z M94.8 40 l0 -28.6 l13.68 0 l3.76 11.44 l3.88 -11.44 l13.44 0 l0 28.6 l-10.6 0 l0 -15.2 l-5.68 15.2 l-3.6 0 l-5.44 -15.2 l0 15.2 l-9.44 0 z M134.24 40 l0 -28.6 l21.36 0 l0 8.12 l-10.76 0 l0 2.44 l8.48 0 l0 7.36 l-8.48 0 l0 2.56 l11.36 0 l0 8.12 l-21.96 0 z M159.64000000000001 40 l0 -28.6 l12.32 0 c9.04 0 12.24 4.04 12.24 10.2 l0 0.16 c0 5.92 -3.76 9.6 -11.72 9.6 l-2.24 0 l0 8.64 l-10.6 0 z M170.24 24.32 l1.04 0 c1.92 0 2.88 -0.84 2.88 -2.52 l0 -0.16 c0 -1.64 -0.92 -2.36 -2.84 -2.36 l-1.08 0 l0 5.04 z M201.28000000000003 32.24 c2.8 0 4.6 -2.24 4.6 -6.4 l0 -0.32 c0 -4.4 -1.92 -6.28 -4.64 -6.28 c-2.68 0 -4.52 1.92 -4.52 6.28 l0 0.32 c0 4.32 1.64 6.4 4.56 6.4 z M201.00000000000003 40.56 c-9.64 0 -15.4 -5.8 -15.4 -14.68 l0 -0.32 c0 -9.04 7 -14.6 15.64 -14.6 c8.88 0 15.76 5 15.76 14.32 l0 0.32 c0 9.16 -6.28 14.96 -16 14.96 z M218.16000000000005 40 l8.52 -14.72 l-7.84 -13.88 l12.16 0 l3.12 7.12 l3.04 -7.12 l10.88 0 l-7.08 13.44 l8.6 15.16 l-12.12 0 l-4.16 -8.68 l-4.12 8.68 l-11 0 z M259.16 40 l0 -12.12 l-9.2 -16.48 l11.52 0 l3.48 7.76 l3.6 -7.76 l10.12 0 l-8.8 16.44 l0 12.16 l-10.72 0 z"></path></g><g id="SvgjsG1019" featureKey="sloganFeature-0" transform="matrix(0.5202371658759474,0,0,0.5202371658759474,34.58381026109753,206.86702816565912)" fill="#cdb7d6"><path d="M0.8 20 l0 -15.6 l4.02 0 l4.5 10.68 l4.52 -10.68 l4.02 0 l0 15.6 l-3.98 0 l0 -7.34 l-3.24 7.34 l-2.62 0 l-3.24 -7.34 l0 7.34 l-3.98 0 z M23.192 20 l6.32 -15.6 l3.96 0 l6.3 15.6 l-4.36 0 l-1.26 -3.48 l-5.3 0 l-1.3 3.48 l-4.36 0 z M30.092 13.280000000000001 l2.78 -0.02 l-1.38 -3.74 z M45.104 20 l0 -15.6 l4 0 l0 5.38 l4.84 -5.38 l5.16 0 l-6.16 6.7 l6.48 8.9 l-4.96 0 l-4.3 -5.88 l-1.06 1.18 l0 4.7 l-4 0 z M64.756 20 l0 -15.6 l4 0 l0 15.6 l-4 0 z M74.08800000000001 20 l0 -15.6 l3.4 0 l6.96 8.72 l0 -8.72 l3.98 0 l0 15.6 l-3.38 0 l-6.96 -8.7 l0 8.7 l-4 0 z M102.04 20.3 c-2.26 0 -4.2 -0.8 -5.82 -2.38 c-1.64 -1.58 -2.46 -3.5 -2.46 -5.72 s0.82 -4.14 2.46 -5.72 c1.62 -1.58 3.56 -2.38 5.82 -2.38 c2.28 0 4.24 0.8 5.86 2.38 c1.22 1.18 1.98 2.56 2.26 4.1 l-4.18 0 c-0.2 -0.52 -0.52 -1 -0.92 -1.4 c-0.82 -0.82 -1.82 -1.22 -3.02 -1.22 c-1.18 0 -2.18 0.42 -3 1.24 s-1.24 1.82 -1.24 3 s0.42 2.18 1.24 3 s1.82 1.24 3 1.24 c1.2 0 2.2 -0.42 3.02 -1.24 l0.24 -0.26 l-3.8 0 l0.02 -3.02 l8.72 0 l0 1.36 c-0.22 1.78 -0.98 3.32 -2.34 4.64 c-1.62 1.58 -3.58 2.38 -5.86 2.38 z M134.584 20.3 c-2.26 0 -4.2 -0.8 -5.82 -2.38 c-1.64 -1.58 -2.46 -3.5 -2.46 -5.72 s0.82 -4.14 2.46 -5.72 c1.62 -1.58 3.56 -2.38 5.82 -2.38 c2.28 0 4.24 0.8 5.86 2.38 c1.22 1.18 1.98 2.56 2.26 4.1 l-4.18 0 c-0.2 -0.52 -0.52 -1 -0.92 -1.4 c-0.82 -0.82 -1.82 -1.22 -3.02 -1.22 c-1.18 0 -2.18 0.42 -3 1.24 s-1.24 1.82 -1.24 3 s0.42 2.18 1.24 3 s1.82 1.24 3 1.24 c1.2 0 2.2 -0.42 3.02 -1.24 c0.56 -0.56 0.92 -1.18 1.1 -1.92 l4.08 0 c-0.22 1.78 -0.98 3.32 -2.34 4.64 c-1.62 1.58 -3.58 2.38 -5.86 2.38 z M156.39600000000002 20.3 c-2.26 0 -4.2 -0.8 -5.82 -2.38 c-1.64 -1.58 -2.46 -3.5 -2.46 -5.72 s0.82 -4.14 2.46 -5.72 c1.62 -1.58 3.56 -2.38 5.82 -2.38 c2.28 0 4.24 0.8 5.86 2.38 s2.42 3.5 2.42 5.72 s-0.8 4.14 -2.42 5.72 s-3.58 2.38 -5.86 2.38 z M156.39600000000002 16.44 c1.2 0 2.2 -0.42 3.02 -1.24 s1.22 -1.82 1.22 -3 s-0.4 -2.2 -1.22 -3.02 s-1.82 -1.22 -3.02 -1.22 c-1.18 0 -2.18 0.42 -3 1.24 s-1.24 1.82 -1.24 3 s0.42 2.18 1.24 3 s1.82 1.24 3 1.24 z M170.008 20 l0 -15.6 l3.4 0 l6.96 8.72 l0 -8.72 l3.98 0 l0 15.6 l-3.38 0 l-6.96 -8.7 l0 8.7 l-4 0 z M197.96 20.3 c-2.26 0 -4.2 -0.8 -5.82 -2.38 c-1.64 -1.58 -2.46 -3.5 -2.46 -5.72 s0.82 -4.14 2.46 -5.72 c1.62 -1.58 3.56 -2.38 5.82 -2.38 c2.28 0 4.24 0.8 5.86 2.38 c1.22 1.18 1.98 2.56 2.26 4.1 l-4.18 0 c-0.2 -0.52 -0.52 -1 -0.92 -1.4 c-0.82 -0.82 -1.82 -1.22 -3.02 -1.22 c-1.18 0 -2.18 0.42 -3 1.24 s-1.24 1.82 -1.24 3 s0.42 2.18 1.24 3 s1.82 1.24 3 1.24 c1.2 0 2.2 -0.42 3.02 -1.24 c0.56 -0.56 0.92 -1.18 1.1 -1.92 l4.08 0 c-0.22 1.78 -0.98 3.32 -2.34 4.64 c-1.62 1.58 -3.58 2.38 -5.86 2.38 z M211.49200000000002 20 l0 -15.6 l6.88 0 c1.96 0 3.48 0.5 4.54 1.5 c1.06 1.02 1.58 2.28 1.58 3.74 c0 1.54 -0.52 2.82 -1.58 3.82 c-0.34 0.32 -0.72 0.58 -1.14 0.8 l3.12 5.74 l-3.78 0 l-2.74 -5.02 l-2.88 0 l0 5.02 l-4 0 z M215.49200000000002 11.78 l2.66 0 c1.54 0 2.3 -0.7 2.3 -2.12 c0 -0.6 -0.18 -1.08 -0.56 -1.48 s-0.96 -0.58 -1.74 -0.58 l-2.66 0 l0 4.18 z M230.22400000000002 20 l0 -15.6 l11.98 0 l0 3.88 l-7.98 0 l0 2.24 l5.62 0 l0 3.62 l-5.62 0 l0 2 l7.98 0 l0 3.86 l-11.98 0 z M252.39600000000002 20 l0 -11.72 l-4.86 0 l0 -3.88 l13.72 0 l0 3.88 l-4.86 0 l0 11.72 l-4 0 z M266.588 20 l0 -15.6 l11.98 0 l0 3.88 l-7.98 0 l0 2.24 l5.62 0 l0 3.62 l-5.62 0 l0 2 l7.98 0 l0 3.86 l-11.98 0 z M294.63200000000006 20 l0 -15.6 l11.98 0 l0 3.88 l-7.98 0 l0 2.24 l5.62 0 l0 3.62 l-5.62 0 l0 2 l7.98 0 l0 3.86 l-11.98 0 z M311.9440000000001 20 l5.36 -7.84 l-5.24 -7.76 l4.72 0 l2.9 4.26 l2.92 -4.26 l4.72 0 l-5.24 7.76 l5.36 7.84 l-4.86 0 l-2.9 -4.28 l-2.88 4.28 l-4.86 0 z M337.6360000000001 20 l0 -11.72 l-4.86 0 l0 -3.88 l13.72 0 l0 3.88 l-4.86 0 l0 11.72 l-4 0 z M351.8280000000001 20 l0 -15.6 l6.88 0 c1.96 0 3.48 0.5 4.54 1.5 c1.06 1.02 1.58 2.28 1.58 3.74 c0 1.54 -0.52 2.82 -1.58 3.82 c-0.34 0.32 -0.72 0.58 -1.14 0.8 l3.12 5.74 l-3.78 0 l-2.74 -5.02 l-2.88 0 l0 5.02 l-4 0 z M355.8280000000001 11.78 l2.66 0 c1.54 0 2.3 -0.7 2.3 -2.12 c0 -0.6 -0.18 -1.08 -0.56 -1.48 s-0.96 -0.58 -1.74 -0.58 l-2.66 0 l0 4.18 z M370.5600000000001 20 l6.32 -15.6 l3.96 0 l6.3 15.6 l-4.36 0 l-1.26 -3.48 l-5.3 0 l-1.3 3.48 l-4.36 0 z M377.4600000000001 13.280000000000001 l2.78 -0.02 l-1.38 -3.74 z M400.75200000000007 20.3 c-2.26 0 -4.2 -0.8 -5.82 -2.38 c-1.64 -1.58 -2.46 -3.5 -2.46 -5.72 s0.82 -4.14 2.46 -5.72 c1.62 -1.58 3.56 -2.38 5.82 -2.38 c2.28 0 4.24 0.8 5.86 2.38 s2.42 3.5 2.42 5.72 s-0.8 4.14 -2.42 5.72 s-3.58 2.38 -5.86 2.38 z M400.75200000000007 16.44 c1.2 0 2.2 -0.42 3.02 -1.24 s1.22 -1.82 1.22 -3 s-0.4 -2.2 -1.22 -3.02 s-1.82 -1.22 -3.02 -1.22 c-1.18 0 -2.18 0.42 -3 1.24 s-1.24 1.82 -1.24 3 s0.42 2.18 1.24 3 s1.82 1.24 3 1.24 z M414.3640000000001 20 l0 -15.6 l6.88 0 c1.96 0 3.48 0.5 4.54 1.5 c1.06 1.02 1.58 2.28 1.58 3.74 c0 1.54 -0.52 2.82 -1.58 3.82 c-0.34 0.32 -0.72 0.58 -1.14 0.8 l3.12 5.74 l-3.78 0 l-2.74 -5.02 l-2.88 0 l0 5.02 l-4 0 z M418.3640000000001 11.78 l2.66 0 c1.54 0 2.3 -0.7 2.3 -2.12 c0 -0.6 -0.18 -1.08 -0.56 -1.48 s-0.96 -0.58 -1.74 -0.58 l-2.66 0 l0 4.18 z M433.09600000000006 20 l0 -15.6 l7.24 0 c1.58 0 2.92 0.36 4.06 1.08 s1.98 1.66 2.52 2.82 s0.8 2.46 0.8 3.9 c0 1.46 -0.26 2.76 -0.8 3.92 s-1.38 2.1 -2.52 2.8 c-1.14 0.72 -2.48 1.08 -4.06 1.08 l-7.24 0 z M437.09600000000006 16.14 l2.94 0 c1.16 0 2.06 -0.36 2.7 -1.08 c0.62 -0.7 0.94 -1.66 0.94 -2.86 s-0.32 -2.16 -0.94 -2.86 c-0.64 -0.7 -1.54 -1.06 -2.7 -1.06 l-2.94 0 l0 7.86 z M453.04800000000006 20 l0 -15.6 l4 0 l0 15.6 l-4 0 z M462.38000000000005 20 l0 -15.6 l3.4 0 l6.96 8.72 l0 -8.72 l3.98 0 l0 15.6 l-3.38 0 l-6.96 -8.7 l0 8.7 l-4 0 z M482.0520000000001 20 l6.32 -15.6 l3.96 0 l6.3 15.6 l-4.36 0 l-1.26 -3.48 l-5.3 0 l-1.3 3.48 l-4.36 0 z M488.95200000000006 13.280000000000001 l2.78 -0.02 l-1.38 -3.74 z M503.96400000000006 20 l0 -15.6 l6.88 0 c1.96 0 3.48 0.5 4.54 1.5 c1.06 1.02 1.58 2.28 1.58 3.74 c0 1.54 -0.52 2.82 -1.58 3.82 c-0.34 0.32 -0.72 0.58 -1.14 0.8 l3.12 5.74 l-3.78 0 l-2.74 -5.02 l-2.88 0 l0 5.02 l-4 0 z M507.96400000000006 11.78 l2.66 0 c1.54 0 2.3 -0.7 2.3 -2.12 c0 -0.6 -0.18 -1.08 -0.56 -1.48 s-0.96 -0.58 -1.74 -0.58 l-2.66 0 l0 4.18 z M528.8560000000001 20 l0 -5.72 l-6.16 -9.88 l4.7 0 l3.44 5.66 l3.46 -5.66 l4.72 0 l-6.18 9.88 l0 5.72 l-3.98 0 z"></path></g>
			</g>
		</svg>
	